<svg width="86" height="98" viewBox="0 0 86 98" fill="none" xmlns="http://www.w3.org/2000/svg">
<path d="M25.1828 91.2266H6.9375V97.3083H25.1828V91.2266Z" fill="#F7FEFF"/>
<path d="M25.1828 54.7363H19.101V85.1451H13.0193V18.2458H25.1828V12.1641H6.9375V91.2268H25.1828V54.7363Z" fill="#231E2B"/>
<path d="M6.93722 12.1641H0.855469V91.2268H6.93722V12.1641Z" fill="#F7FEFF"/>
<path d="M55.5898 66.8984H43.4263V72.9801H55.5898V66.8984Z" fill="#F7FEFF"/>
<path d="M61.6721 60.8184H55.5903V66.9001H61.6721V60.8184Z" fill="#F7FEFF"/>
<path d="M55.5898 60.8184H43.4263V66.9001H55.5898V60.8184Z" fill="#231E2B"/>
<path d="M43.4289 60.8184H37.3472V66.9001H43.4289V60.8184Z" fill="#F7FEFF"/>
<path d="M19.1013 60.8184H13.0195V85.1454H19.1013V60.8184Z" fill="#E2B436"/>
<path d="M79.9176 54.7363H61.6724V60.8181H79.9176V54.7363Z" fill="#F7FEFF"/>
<path d="M61.6721 54.7363H55.5903V60.8181H61.6721V54.7363Z" fill="#231E2B"/>
<path d="M55.5898 54.7363H43.4263V60.8181H55.5898V54.7363Z" fill="#892727"/>
<path d="M43.4289 54.7363H37.3472V60.8181H43.4289V54.7363Z" fill="#231E2B"/>
<path d="M25.1836 54.7363V91.2268H31.2653V60.8181H37.3471V54.7363H25.1836Z" fill="#F7FEFF"/>
<path d="M19.1013 54.7363H13.0195V60.8181H19.1013V54.7363Z" fill="#CF8934"/>
<path d="M61.6721 48.6543H55.5903V54.7361H61.6721V48.6543Z" fill="#892727"/>
<path d="M43.4289 48.6543H37.3472V54.7361H43.4289V48.6543Z" fill="#892727"/>
<path d="M37.3471 48.6543H25.1836V54.7361H37.3471V48.6543Z" fill="#231E2B"/>
<path d="M25.1833 48.6543H19.1016V54.7361H25.1833V48.6543Z" fill="#892727"/>
<path d="M85.9997 36.4902H79.918V54.7355H85.9997V36.4902Z" fill="#F7FEFF"/>
<path d="M61.6738 42.5714V24.3262H55.5921V30.4079H43.4286V24.3262H37.3468V42.5714H25.1833V24.3262H19.1016V48.6532H43.4286V54.7349H55.5921V48.6532H73.8373V42.5714H61.6738Z" fill="#9A2D2D"/>
<path d="M19.1013 18.2461H13.0195V54.7367H19.1013V18.2461Z" fill="#CF6B55"/>
<path d="M73.8359 48.6538H61.6724V54.7355H79.9176V36.4902H73.8359V48.6538Z" fill="#231E2B"/>
<path d="M79.9177 24.3262H73.8359V36.4897H79.9177V24.3262Z" fill="#F7FEFF"/>
<path d="M73.8357 24.3262H67.7539V36.4897H73.8357V24.3262Z" fill="#231E2B"/>
<path d="M55.5898 24.3262H43.4263V30.4079H55.5898V24.3262Z" fill="#B0392E"/>
<path d="M61.6721 24.3279V42.5732H73.8356V36.4914H67.7538V24.3279H73.8356V18.2461H55.5903V24.3279H61.6721Z" fill="#B0392E"/>
<path d="M55.5898 18.2461H43.4263V24.3279H55.5898V18.2461Z" fill="#231E2B"/>
<path d="M19.1016 18.2461V24.3279H25.1833V42.5732H37.3468V24.3279H43.4286V18.2461H19.1016Z" fill="#B0392E"/>
<path d="M85.9997 6.08203H79.918V24.3273H85.9997V6.08203Z" fill="#F7FEFF"/>
<path d="M73.8359 12.1641H61.6724V18.2458H73.8359V12.1641Z" fill="#CF6B55"/>
<path d="M61.6721 12.1641H55.5903V18.2458H61.6721V12.1641Z" fill="#231E2B"/>
<path d="M55.5898 12.1641H43.4263V18.2458H55.5898V12.1641Z" fill="#F7FEFF"/>
<path d="M43.4289 12.1641H37.3472V18.2458H43.4289V12.1641Z" fill="#231E2B"/>
<path d="M37.3471 12.1641H25.1836V18.2458H37.3471V12.1641Z" fill="#CF6B55"/>
<path d="M73.8359 12.1638V24.3273H79.9176V6.08203H61.6724V12.1638H73.8359Z" fill="#231E2B"/>
<path d="M61.6721 6.08203H55.5903V12.1638H61.6721V6.08203Z" fill="#F7FEFF"/>
<path d="M43.4289 6.08203H37.3472V12.1638H43.4289V6.08203Z" fill="#F7FEFF"/>
<path d="M37.3471 6.08203H25.1836V12.1638H37.3471V6.08203Z" fill="#231E2B"/>
<path d="M25.1828 6.08203H6.9375V12.1638H25.1828V6.08203Z" fill="#F7FEFF"/>
<path d="M79.9176 0H61.6724V6.08174H79.9176V0Z" fill="#F7FEFF"/>
<path d="M37.3471 0H25.1836V6.08174H37.3471V0Z" fill="#F7FEFF"/>
</svg>
