<svg width="32" height="32" viewBox="0 0 32 32" fill="none" xmlns="http://www.w3.org/2000/svg">
<path fill-rule="evenodd" clip-rule="evenodd" d="M15.3332 11.333C15.3332 12.5277 14.8838 13.6183 14.1452 14.4437C15.182 15.1811 15.9575 16.2291 16.3597 17.4361C16.762 18.6432 16.7701 19.9469 16.3829 21.1588C15.9957 22.3708 15.2333 23.4283 14.2058 24.1787C13.1783 24.929 11.9388 25.3332 10.6665 25.333H4.6665C4.13607 25.333 3.62736 25.1223 3.25229 24.7472C2.87722 24.3721 2.6665 23.8634 2.6665 23.333V7.33301C2.6665 6.80257 2.87722 6.29387 3.25229 5.91879C3.62736 5.54372 4.13607 5.33301 4.6665 5.33301H9.99984C11.4143 5.33301 12.7709 5.89491 13.7711 6.8951C14.7713 7.8953 15.3332 9.25185 15.3332 10.6663V11.333ZM5.33317 13.333V7.99967H9.99984C10.7071 7.99967 11.3854 8.28063 11.8855 8.78072C12.3856 9.28082 12.6665 9.9591 12.6665 10.6663V11.333C12.6665 11.8634 12.4558 12.3721 12.0807 12.7472C11.7056 13.1223 11.1969 13.333 10.6665 13.333H5.33317ZM5.33317 15.9997H10.6665C11.5506 15.9997 12.3984 16.3509 13.0235 16.976C13.6486 17.6011 13.9998 18.449 13.9998 19.333C13.9998 20.2171 13.6486 21.0649 13.0235 21.69C12.3984 22.3152 11.5506 22.6663 10.6665 22.6663H5.33317V15.9997Z" fill="#A79898"/>
<path d="M20 8.00033C20 7.6467 20.1405 7.30757 20.3905 7.05752C20.6406 6.80747 20.9797 6.66699 21.3333 6.66699H26C26.3536 6.66699 26.6928 6.80747 26.9428 7.05752C27.1929 7.30757 27.3333 7.6467 27.3333 8.00033C27.3333 8.35395 27.1929 8.69309 26.9428 8.94313C26.6928 9.19318 26.3536 9.33366 26 9.33366H21.3333C20.9797 9.33366 20.6406 9.19318 20.3905 8.94313C20.1405 8.69309 20 8.35395 20 8.00033Z" fill="#A79898"/>
<path fill-rule="evenodd" clip-rule="evenodd" d="M23.6665 10.667C19.8785 10.667 16.6665 13.5763 16.6665 17.3337V18.667C16.6665 22.4243 19.8785 25.3337 23.6665 25.3337C25.6865 25.3337 27.1492 24.7523 28.1292 24.1203C28.7185 23.7417 29.1812 23.2803 29.6265 22.7497C29.8203 22.4587 29.892 22.1032 29.8262 21.7598C29.7604 21.4164 29.5624 21.1127 29.2748 20.9139C28.9872 20.7151 28.633 20.6372 28.2886 20.697C27.9441 20.7568 27.6369 20.9496 27.4332 21.2337C27.2216 21.4885 26.9693 21.7065 26.6865 21.879C26.1118 22.2483 25.1452 22.667 23.6665 22.667C21.1958 22.667 19.3332 20.8003 19.3332 18.667H29.3332C29.6868 18.667 30.0259 18.5265 30.276 18.2765C30.526 18.0264 30.6665 17.6873 30.6665 17.3337C30.6665 13.5763 27.4545 10.667 23.6665 10.667ZM27.7505 16.0003C27.1638 14.479 25.6012 13.3337 23.6665 13.3337C21.7318 13.3337 20.1692 14.479 19.5825 16.0003H27.7505Z" fill="#A79898"/>
</svg>
