<svg width="23" height="23" viewBox="0 0 23 23" fill="none" xmlns="http://www.w3.org/2000/svg">
<path fill-rule="evenodd" clip-rule="evenodd" d="M2.4589 10.1616C5.15807 10.3855 7.74268 9.84402 9.88265 8.62044C8.80604 7.02127 7.54459 5.55464 6.12444 4.25096C5.14597 4.93757 4.31672 5.81528 3.68674 6.83114C3.05675 7.84699 2.63907 8.97994 2.4589 10.1616ZM5.68499 2.05997C4.03806 3.02381 2.67221 4.40208 1.72329 6.05765C0.774382 7.71322 0.275489 9.58839 0.276246 11.4966C0.276246 17.5354 5.17161 22.4307 11.2104 22.4307C17.2491 22.4307 22.1445 17.5354 22.1445 11.4966C22.1445 5.45787 17.2491 0.562514 11.2104 0.562514C9.26804 0.559369 7.36027 1.07604 5.68499 2.05893V2.05997ZM8.0655 3.21898C9.37853 4.49459 10.5573 5.90152 11.5832 7.41768C12.8818 6.29725 13.8894 4.87869 14.5198 3.28355C13.4679 2.86017 12.3443 2.64344 11.2104 2.6452C10.1362 2.644 9.0708 2.8388 8.06654 3.22002L8.0655 3.21898ZM16.3556 4.29365C15.5588 6.20694 14.3022 7.89412 12.6974 9.20567C13.0598 9.83985 13.3961 10.4886 13.7054 11.1499C15.6663 10.3866 17.7875 10.0346 19.9691 10.2147C19.7967 9.03554 19.3878 7.90334 18.7671 6.88605C18.1463 5.86876 17.3265 4.98734 16.3567 4.29469L16.3556 4.29365ZM20.0243 12.3099C18.127 12.1162 16.2546 12.4036 14.5135 13.0711C15.2332 14.9742 15.7101 16.9604 15.9329 18.9828C17.0807 18.2587 18.0466 17.2803 18.7559 16.1232C19.4652 14.9661 19.8988 13.6614 20.0233 12.3099H20.0243ZM13.9262 19.9221C13.773 17.8873 13.3351 15.8841 12.6255 13.9709C10.42 15.2382 8.52682 17.1324 7.2116 19.3952C8.45079 20.0236 9.82097 20.3501 11.2104 20.3481C12.158 20.3481 13.0712 20.1991 13.9272 19.9232L13.9262 19.9221ZM5.47568 18.2393C7.00021 15.663 9.2141 13.4783 11.8195 12.034C11.5587 11.4764 11.2774 10.9286 10.9761 10.3918C8.46225 11.8413 5.45693 12.4786 2.38913 12.2443C2.58483 14.5722 3.69462 16.7277 5.47568 18.2393Z" fill="#C4B6B6"/>
</svg>
