<svg width="22" height="21" viewBox="0 0 22 21" fill="none" xmlns="http://www.w3.org/2000/svg">
<path fill-rule="evenodd" clip-rule="evenodd" d="M0.890808 4.24838C0.890808 3.14366 1.32966 2.08418 2.11082 1.30302C2.89198 0.521859 3.95146 0.0830078 5.05619 0.0830078H17.5523C18.657 0.0830078 19.7165 0.521859 20.4977 1.30302C21.2788 2.08418 21.7177 3.14366 21.7177 4.24838V16.7445C21.7177 17.8492 21.2788 18.9087 20.4977 19.6899C19.7165 20.471 18.657 20.9099 17.5523 20.9099H5.05619C3.95146 20.9099 2.89198 20.471 2.11082 19.6899C1.32966 18.9087 0.890808 17.8492 0.890808 16.7445V4.24838ZM5.05619 2.1657C4.50382 2.1657 3.97408 2.38512 3.5835 2.7757C3.19292 3.16628 2.9735 3.69602 2.9735 4.24838V16.7445C2.9735 17.2969 3.19292 17.8266 3.5835 18.2172C3.97408 18.6078 4.50382 18.8272 5.05619 18.8272H11.3043V11.5378H10.2629C9.98672 11.5378 9.72186 11.4281 9.52657 11.2328C9.33127 11.0375 9.22156 10.7726 9.22156 10.4965C9.22156 10.2203 9.33127 9.9554 9.52657 9.76011C9.72186 9.56482 9.98672 9.45511 10.2629 9.45511H11.3043V7.89309C11.3043 6.92645 11.6882 5.99941 12.3718 5.31589C13.0553 4.63238 13.9823 4.24838 14.949 4.24838H15.5738C15.8499 4.24838 16.1148 4.3581 16.3101 4.55339C16.5054 4.74868 16.6151 5.01355 16.6151 5.28973C16.6151 5.56591 16.5054 5.83078 16.3101 6.02607C16.1148 6.22136 15.8499 6.33107 15.5738 6.33107H14.949C14.7438 6.33107 14.5407 6.37148 14.3512 6.44998C14.1617 6.52847 13.9895 6.64353 13.8444 6.78858C13.6994 6.93362 13.5843 7.10582 13.5058 7.29533C13.4273 7.48484 13.3869 7.68796 13.3869 7.89309V9.45511H15.5738C15.8499 9.45511 16.1148 9.56482 16.3101 9.76011C16.5054 9.9554 16.6151 10.2203 16.6151 10.4965C16.6151 10.7726 16.5054 11.0375 16.3101 11.2328C16.1148 11.4281 15.8499 11.5378 15.5738 11.5378H13.3869V18.8272H17.5523C18.1047 18.8272 18.6344 18.6078 19.025 18.2172C19.4156 17.8266 19.635 17.2969 19.635 16.7445V4.24838C19.635 3.69602 19.4156 3.16628 19.025 2.7757C18.6344 2.38512 18.1047 2.1657 17.5523 2.1657H5.05619Z" fill="#C4B6B6"/>
</svg>
