<svg width="22" height="21" viewBox="0 0 22 21" fill="none" xmlns="http://www.w3.org/2000/svg">
<path fill-rule="evenodd" clip-rule="evenodd" d="M4.38553 0.0830078C3.2808 0.0830078 2.22132 0.521859 1.44016 1.30302C0.659005 2.08418 0.220154 3.14366 0.220154 4.24838V16.7445C0.220154 17.8492 0.659005 18.9087 1.44016 19.6899C2.22132 20.471 3.2808 20.9099 4.38553 20.9099H16.8817C17.9864 20.9099 19.0459 20.471 19.827 19.6899C20.6082 18.9087 21.047 17.8492 21.047 16.7445V4.24838C21.047 3.14366 20.6082 2.08418 19.827 1.30302C19.0459 0.521859 17.9864 0.0830078 16.8817 0.0830078H4.38553ZM2.30284 4.24838C2.30284 3.69602 2.52227 3.16628 2.91285 2.7757C3.30343 2.38512 3.83317 2.1657 4.38553 2.1657H16.8817C17.434 2.1657 17.9638 2.38512 18.3543 2.7757C18.7449 3.16628 18.9644 3.69602 18.9644 4.24838V16.7445C18.9644 17.2969 18.7449 17.8266 18.3543 18.2172C17.9638 18.6078 17.434 18.8272 16.8817 18.8272H4.38553C3.83317 18.8272 3.30343 18.6078 2.91285 18.2172C2.52227 17.8266 2.30284 17.2969 2.30284 16.7445V4.24838ZM7.50956 9.45511C7.50956 9.17892 7.39985 8.91405 7.20456 8.71877C7.00927 8.52347 6.7444 8.41376 6.46822 8.41376C6.19204 8.41376 5.92717 8.52347 5.73188 8.71877C5.53659 8.91405 5.42688 9.17892 5.42688 9.45511V15.7032C5.42688 15.9794 5.53659 16.2442 5.73188 16.4395C5.92717 16.6348 6.19204 16.7445 6.46822 16.7445C6.7444 16.7445 7.00927 16.6348 7.20456 16.4395C7.39985 16.2442 7.50956 15.9794 7.50956 15.7032V9.45511ZM8.03024 5.8104C8.03024 6.22467 7.86567 6.62198 7.57273 6.91491C7.2798 7.20785 6.88249 7.37242 6.46822 7.37242C6.05395 7.37242 5.65664 7.20785 5.36371 6.91491C5.07077 6.62198 4.9062 6.22467 4.9062 5.8104C4.9062 5.39613 5.07077 4.99882 5.36371 4.70589C5.65664 4.41295 6.05395 4.24838 6.46822 4.24838C6.88249 4.24838 7.2798 4.41295 7.57273 4.70589C7.86567 4.99882 8.03024 5.39613 8.03024 5.8104ZM10.6336 8.41376C10.9877 8.41376 11.3001 8.59079 11.4875 8.85946C12.0242 8.56695 12.6257 8.41371 13.237 8.41376C15.4863 8.41376 16.8817 10.4194 16.8817 12.1324V15.7032C16.8817 15.9794 16.7719 16.2442 16.5767 16.4395C16.3814 16.6348 16.1165 16.7445 15.8403 16.7445C15.5641 16.7445 15.2993 16.6348 15.104 16.4395C14.9087 16.2442 14.799 15.9794 14.799 15.7032V12.1314C14.799 11.3316 14.1117 10.4954 13.237 10.4954C12.6913 10.4954 12.0884 10.7922 11.6749 11.4982V15.7032C11.6749 15.9794 11.5652 16.2442 11.3699 16.4395C11.1746 16.6348 10.9098 16.7445 10.6336 16.7445C10.3574 16.7445 10.0925 16.6348 9.89725 16.4395C9.70197 16.2442 9.59225 15.9794 9.59225 15.7032V9.45511C9.59225 9.17892 9.70197 8.91405 9.89725 8.71877C10.0925 8.52347 10.3574 8.41376 10.6336 8.41376Z" fill="#C4B6B6"/>
</svg>
