<svg width="23" height="23" viewBox="0 0 23 23" fill="none" xmlns="http://www.w3.org/2000/svg">
<path fill-rule="evenodd" clip-rule="evenodd" d="M2.93572 11.4966C2.93635 9.61337 3.53762 7.7794 4.65212 6.26134C5.76662 4.74328 7.33626 3.62025 9.13284 3.05551C10.9294 2.49078 12.8593 2.51378 14.6419 3.12116C16.4245 3.72855 17.9669 4.88866 19.045 6.43285C20.123 7.97704 20.6804 9.82481 20.6361 11.7075C20.5919 13.5903 19.9483 15.4098 18.7989 16.9017C17.6496 18.3935 16.0544 19.4799 14.2452 20.0029C12.436 20.5258 10.5072 20.4582 8.73913 19.8097C9.33989 18.1993 9.92274 16.5824 10.4875 14.9591C11.0853 15.386 11.8569 15.662 12.8285 15.662C14.8435 15.662 16.9678 14.3343 17.4937 11.7007C18.157 8.39445 15.5089 5.24855 11.7871 5.24855C10.222 5.24855 8.68289 5.87752 7.53117 6.87513C6.37736 7.87586 5.53908 9.31708 5.53908 10.9759C5.53908 11.783 5.78275 12.6817 6.36278 13.2731C6.55934 13.4666 6.82403 13.5751 7.09984 13.5753C7.37564 13.5755 7.64049 13.4674 7.83732 13.2742C8.02873 13.0829 8.13817 12.8246 8.14244 12.5541C8.14672 12.2835 8.0455 12.0219 7.86023 11.8246C7.04174 10.8041 8.12057 9.12131 8.89533 8.44964C9.70029 7.75194 10.7635 7.33124 11.7871 7.33124C14.3145 7.33124 15.8317 9.39206 15.4527 11.2925C15.1361 12.8691 13.9365 13.5793 12.8285 13.5793C11.9767 13.5793 11.5185 13.22 11.2248 12.7546C11.3852 12.2505 11.5216 11.7924 11.6195 11.4196C11.8194 10.6521 11.9402 9.72633 11.2498 9.15047C10.7364 8.72351 10.1304 8.81724 9.75964 9.00364C9.06923 9.34728 8.66311 10.1533 8.66311 10.9759C8.66311 11.4352 8.73496 12.1475 8.99322 12.8837C8.32123 14.8878 7.6137 16.8799 6.87096 18.8589C5.6595 18.0507 4.66641 16.9557 3.9799 15.6714C3.29339 14.387 2.93471 12.9529 2.93572 11.4966ZM11.7871 0.5625C5.74839 0.5625 0.853027 5.45786 0.853027 11.4966C0.853027 17.5354 5.74839 22.4307 11.7871 22.4307C17.8259 22.4307 22.7213 17.5354 22.7213 11.4966C22.7213 5.45786 17.8259 0.5625 11.7871 0.5625Z" fill="#C4B6B6"/>
</svg>
