<svg width="22" height="22" viewBox="0 0 22 22" fill="none" xmlns="http://www.w3.org/2000/svg">
<path fill-rule="evenodd" clip-rule="evenodd" d="M5.97352 2.23859C7.20439 0.776543 8.9476 0.0830078 10.922 0.0830078C12.9422 0.0830078 14.675 0.899422 15.8829 2.3875C16.9555 3.71001 17.5626 5.49487 17.673 7.57027L17.7688 7.58485L17.7896 7.58798C17.9667 7.61297 18.1781 7.64421 18.3978 7.6869C19.2111 7.84415 20.5992 8.24194 21.0772 9.7321C21.3167 10.4808 21.1969 11.1744 20.7773 11.7242C20.4159 12.198 19.8994 12.4719 19.5297 12.6375C19.3465 12.7208 19.1632 12.7916 19.0091 12.8509C19.3694 13.8256 19.9963 14.8284 20.6898 15.7365C21.3427 16.5925 21.1699 17.6765 20.8325 18.3836C20.494 19.0917 19.763 19.9008 18.6987 19.9467C18.0968 19.9727 17.4648 20.0352 16.8358 20.1497C16.5515 20.2018 16.2162 20.3153 15.7996 20.4871C15.5508 20.5892 15.3227 20.6912 15.0769 20.8006C14.8812 20.888 14.675 20.9797 14.4365 21.0817C13.4577 21.5024 12.2549 21.9512 10.922 21.9512C9.58906 21.9512 8.38631 21.5024 7.40745 21.0817C7.16898 20.9797 6.96175 20.888 6.76702 20.8006C6.5276 20.6927 6.28668 20.5882 6.04433 20.4871C5.62779 20.3153 5.29248 20.2007 5.00819 20.1487C4.37922 20.0341 3.74712 19.9727 3.14418 19.9467C2.08097 19.9008 1.34891 19.0917 1.01151 18.3836C0.674116 17.6765 0.501253 16.5925 1.15418 15.7365C1.85188 14.8222 2.48189 13.8121 2.84115 12.8311C2.68351 12.7691 2.5276 12.7028 2.37359 12.6322C2.01328 12.4635 1.52385 12.1938 1.16251 11.7419C0.759506 11.2358 0.581436 10.5829 0.739721 9.8352C1.07712 8.23465 2.5829 7.83582 3.37849 7.68586C3.60446 7.64421 3.82418 7.61297 4.0085 7.58694L4.04495 7.58173L4.16991 7.56403C4.273 5.35117 4.87594 3.54131 5.97352 2.23859ZM7.56677 3.57984C6.77223 4.52226 6.23594 6.03741 6.23594 8.26589V8.37419L6.21303 8.48145C6.09744 9.02711 5.67777 9.28224 5.46951 9.38013C5.25082 9.48322 5.01444 9.53425 4.84782 9.56549C4.68537 9.59569 4.50418 9.62068 4.34277 9.64255L4.29487 9.64984C4.11686 9.67339 3.93943 9.70117 3.76274 9.73315C2.96611 9.88206 2.81512 10.0799 2.77659 10.2642C2.74951 10.3965 2.77347 10.4236 2.787 10.4381L2.79117 10.4423C2.84636 10.5121 2.97965 10.6162 3.25665 10.7453C3.38578 10.8057 3.52219 10.8609 3.67319 10.9224L3.71068 10.9369C3.84293 10.989 4.00017 11.0525 4.13867 11.1181C4.27508 11.1806 4.50314 11.2952 4.69683 11.4805C4.92176 11.6961 5.19355 12.1168 5.0613 12.6718C4.68225 14.2661 3.72525 15.8011 2.81095 16.9986C2.79704 17.0336 2.79134 17.0714 2.79429 17.109C2.79429 17.2079 2.82241 17.3433 2.8901 17.486C2.95883 17.6286 3.0463 17.738 3.12752 17.8036C3.19417 17.8577 3.23166 17.866 3.23582 17.866C3.91374 17.8952 4.64164 17.966 5.38099 18.1003C5.88396 18.192 6.38068 18.3732 6.83887 18.5627C7.09192 18.6668 7.38245 18.796 7.66466 18.9209C7.86147 19.0084 8.05412 19.0938 8.22698 19.1677C9.16315 19.5686 10.0368 19.8685 10.922 19.8685C11.8071 19.8685 12.6819 19.5686 13.617 19.1677C13.7898 19.0938 13.9825 19.0074 14.1793 18.9209C14.4605 18.796 14.752 18.6668 15.0041 18.5627C15.4622 18.3732 15.959 18.192 16.4619 18.1003C17.2013 17.965 17.9302 17.8952 18.6071 17.866C18.6134 17.866 18.6498 17.8577 18.7164 17.8036C18.8171 17.7157 18.8981 17.6074 18.9539 17.486C19.0123 17.3686 19.045 17.24 19.0497 17.109C19.0497 17.0121 19.0257 16.9892 19.0341 17.0007C18.1198 15.8031 17.1617 14.2672 16.7816 12.6718C16.641 12.0783 16.9628 11.6513 17.1846 11.4534C17.3825 11.2785 17.6137 11.1692 17.7542 11.1077C17.8948 11.0452 18.0531 10.9859 18.1885 10.9349L18.2385 10.9151C18.3978 10.8557 18.5405 10.8005 18.6748 10.7391C18.956 10.6131 19.0757 10.5162 19.1163 10.4673C19.1127 10.4336 19.1053 10.4004 19.0945 10.3684C18.9997 10.0726 18.7321 9.87269 18.001 9.73106C17.8355 9.69982 17.6678 9.67483 17.4908 9.64776L17.4512 9.64255C17.2864 9.62017 17.1222 9.59378 16.9587 9.56341C16.7465 9.52624 16.5403 9.46111 16.3453 9.36972C16.1266 9.26142 15.7413 9.00212 15.6309 8.48145L15.608 8.37419V8.26485C15.608 6.23423 15.0801 4.70345 14.2657 3.70064C13.4691 2.71761 12.3393 2.1657 10.922 2.1657C9.4589 2.1657 8.33945 2.66138 7.56573 3.57984H7.56677Z" fill="#C4B6B6"/>
</svg>
