<?xml version="1.0" encoding="UTF-8" standalone="no"?> <svg width="64" height="64" viewBox="0 0 64 64" fill="none" xmlns="http://www.w3.org/2000/svg">
<path d="M60.22 30.86L58.22 19.17C57.6244 15.7232 55.8273 12.5987 53.1473 10.3508C50.4674 8.10282 47.0778 6.87674 43.58 6.89H22.45C20.4593 6.88265 18.5414 7.63766 17.09 9C17.0312 7.9202 16.561 6.90392 15.7762 6.15998C14.9913 5.41605 13.9514 5.00096 12.87 5H7.86996C7.3059 4.99992 6.74747 5.11213 6.22722 5.33008C5.70697 5.54802 5.23531 5.86735 4.83974 6.26944C4.44416 6.67154 4.13258 7.14835 3.92316 7.67209C3.71374 8.19583 3.61067 8.75602 3.61996 9.32V40C3.6226 41.1264 4.07122 42.2058 4.86767 43.0023C5.66413 43.7987 6.7436 44.2474 7.86996 44.25H12.87C13.9514 44.249 14.9913 43.834 15.7762 43.09C16.561 42.3461 17.0312 41.3298 17.09 40.25C18.5367 41.6233 20.4552 42.3892 22.45 42.39H25.71C26.8329 42.3895 27.9421 42.6378 28.9576 43.1172C29.9731 43.5965 30.8698 44.295 31.5831 45.1623C32.2965 46.0296 32.8088 47.0442 33.0831 48.1331C33.3575 49.222 33.3872 50.3582 33.17 51.46L31.65 59.25C31.6161 59.4255 31.6218 59.6064 31.6668 59.7794C31.7118 59.9524 31.7949 60.1132 31.91 60.25C32.0295 60.3991 32.1821 60.5183 32.3556 60.5981C32.5292 60.6779 32.719 60.7163 32.91 60.71C36.3697 60.7048 39.6871 59.3322 42.1391 56.8915C44.5911 54.4507 45.9789 51.1396 46 47.68V43.16H49.9C51.4317 43.1608 52.945 42.8265 54.3338 42.1805C55.7227 41.5344 56.9533 40.5924 57.9395 39.4204C58.9257 38.2484 59.6435 36.8748 60.0427 35.396C60.4418 33.9173 60.5125 32.369 60.25 30.86H60.22ZM14.62 40C14.62 40.2298 14.5747 40.4574 14.4868 40.6697C14.3988 40.882 14.2699 41.0749 14.1074 41.2374C13.9449 41.3999 13.752 41.5288 13.5397 41.6168C13.3273 41.7047 13.0998 41.75 12.87 41.75H7.86996C7.40664 41.7474 6.96305 41.5622 6.63543 41.2345C6.3078 40.9069 6.12259 40.4633 6.11996 40V9.32C6.11996 8.85587 6.30434 8.41075 6.63252 8.08256C6.96071 7.75437 7.40583 7.57 7.86996 7.57H12.87C13.3341 7.57 13.7792 7.75437 14.1074 8.08256C14.4356 8.41075 14.62 8.85587 14.62 9.32V40ZM56 37.81C55.2482 38.7037 54.3098 39.4219 53.2508 39.9143C52.1918 40.4067 51.0378 40.6612 49.87 40.66H44.72C44.3884 40.66 44.0705 40.7917 43.8361 41.0261C43.6017 41.2605 43.47 41.5785 43.47 41.91V47.68C43.4664 50.2237 42.55 52.6817 40.8873 54.6068C39.2246 56.532 36.9261 57.7963 34.41 58.17L35.63 52C35.9098 50.5392 35.8635 49.0345 35.4944 47.5937C35.1253 46.1528 34.4425 44.8112 33.4948 43.6648C32.5471 42.5184 31.3579 41.5955 30.0122 40.962C28.6664 40.3284 27.1974 40 25.71 40H22.45C21.0364 40 19.6807 39.4384 18.6811 38.4389C17.6815 37.4393 17.12 36.0836 17.12 34.67V14.71C17.1226 13.2981 17.6853 11.945 18.6846 10.9476C19.6839 9.95018 21.0381 9.39 22.45 9.39H43.58C46.4835 9.38355 49.2956 10.4053 51.5177 12.2742C53.7399 14.1431 55.2286 16.7383 55.72 19.6L57.72 31.29C57.9252 32.4365 57.8776 33.6139 57.5805 34.7401C57.2834 35.8662 56.744 36.9139 56 37.81Z" fill="black"/>
</svg>
