<svg width="28" height="28" viewBox="0 0 28 28" fill="none" xmlns="http://www.w3.org/2000/svg">
<path fill-rule="evenodd" clip-rule="evenodd" d="M6.00057 0.666992C4.58608 0.666992 3.22953 1.2289 2.22933 2.22909C1.22914 3.22928 0.667236 4.58584 0.667236 6.00033V22.0003C0.667236 23.4148 1.22914 24.7714 2.22933 25.7716C3.22953 26.7718 4.58608 27.3337 6.00057 27.3337H22.0006C23.4151 27.3337 24.7716 26.7718 25.7718 25.7716C26.772 24.7714 27.3339 23.4148 27.3339 22.0003V6.00033C27.3339 4.58584 26.772 3.22928 25.7718 2.22909C24.7716 1.2289 23.4151 0.666992 22.0006 0.666992H6.00057ZM3.3339 6.00033C3.3339 5.29308 3.61485 4.6148 4.11495 4.11471C4.61505 3.61461 5.29333 3.33366 6.00057 3.33366H22.0006C22.7078 3.33366 23.3861 3.61461 23.8862 4.11471C24.3863 4.6148 24.6672 5.29308 24.6672 6.00033V22.0003C24.6672 22.7076 24.3863 23.3858 23.8862 23.8859C23.3861 24.386 22.7078 24.667 22.0006 24.667H6.00057C5.29333 24.667 4.61505 24.386 4.11495 23.8859C3.61485 23.3858 3.3339 22.7076 3.3339 22.0003V6.00033ZM10.0006 12.667C10.0006 12.3134 9.86009 11.9742 9.61005 11.7242C9.36 11.4741 9.02086 11.3337 8.66724 11.3337C8.31361 11.3337 7.97448 11.4741 7.72443 11.7242C7.47438 11.9742 7.3339 12.3134 7.3339 12.667V20.667C7.3339 21.0206 7.47438 21.3598 7.72443 21.6098C7.97448 21.8599 8.31361 22.0003 8.66724 22.0003C9.02086 22.0003 9.36 21.8599 9.61005 21.6098C9.86009 21.3598 10.0006 21.0206 10.0006 20.667V12.667ZM10.6672 8.00033C10.6672 8.53076 10.4565 9.03947 10.0815 9.41454C9.70638 9.78961 9.19767 10.0003 8.66724 10.0003C8.1368 10.0003 7.6281 9.78961 7.25302 9.41454C6.87795 9.03947 6.66724 8.53076 6.66724 8.00033C6.66724 7.46989 6.87795 6.96118 7.25302 6.58611C7.6281 6.21104 8.1368 6.00033 8.66724 6.00033C9.19767 6.00033 9.70638 6.21104 10.0815 6.58611C10.4565 6.96118 10.6672 7.46989 10.6672 8.00033ZM14.0006 11.3337C14.4539 11.3337 14.8539 11.5603 15.0939 11.9043C15.7811 11.5298 16.5513 11.3336 17.3339 11.3337C20.2139 11.3337 22.0006 13.9017 22.0006 16.095V20.667C22.0006 21.0206 21.8601 21.3598 21.61 21.6098C21.36 21.8599 21.0209 22.0003 20.6672 22.0003C20.3136 22.0003 19.9745 21.8599 19.7244 21.6098C19.4744 21.3598 19.3339 21.0206 19.3339 20.667V16.0937C19.3339 15.0697 18.4539 13.999 17.3339 13.999C16.6352 13.999 15.8632 14.379 15.3339 15.283V20.667C15.3339 21.0206 15.1934 21.3598 14.9434 21.6098C14.6933 21.8599 14.3542 22.0003 14.0006 22.0003C13.6469 22.0003 13.3078 21.8599 13.0578 21.6098C12.8077 21.3598 12.6672 21.0206 12.6672 20.667V12.667C12.6672 12.3134 12.8077 11.9742 13.0578 11.7242C13.3078 11.4741 13.6469 11.3337 14.0006 11.3337Z" fill="#C4B6B6"/>
</svg>
