<?xml version="1.0" encoding="UTF-8" standalone="no"?> <svg width="64" height="64" viewBox="0 0 64 64" fill="none" xmlns="http://www.w3.org/2000/svg">
<path d="M57.8999 26.4001C55.8999 24.0001 52.9999 22.7001 49.8999 22.7001H45.9999V18.2001C45.9999 11.0001 40.0999 5.1001 32.8999 5.1001C32.4999 5.1001 32.1999 5.3001 31.8999 5.6001C31.6999 5.9001 31.5999 6.3001 31.5999 6.6001L33.0999 14.4001C33.4999 16.6001 32.9999 18.8001 31.5999 20.5001C30.0999 22.4001 27.9999 23.4001 25.5999 23.4001H22.2999C20.1999 23.4001 18.2999 24.2001 16.8999 25.5001C16.6999 23.3001 14.8999 21.5001 12.6999 21.5001H7.6999C5.3999 21.5001 3.3999 23.4001 3.3999 25.8001V56.5001C3.3999 58.8001 5.2999 60.8001 7.6999 60.8001H12.6999C14.8999 60.8001 16.7999 59.0001 16.8999 56.8001C18.2999 58.1001 20.1999 58.9001 22.2999 58.9001H43.3999C50.5999 58.9001 56.7999 53.7001 57.9999 46.6001L59.9999 34.9001C60.7999 31.9001 59.8999 28.8001 57.8999 26.4001ZM14.5999 56.5001C14.5999 57.5001 13.7999 58.3001 12.7999 58.3001H7.7999C6.7999 58.3001 5.9999 57.5001 5.9999 56.5001V25.8001C5.9999 24.8001 6.7999 24.0001 7.7999 24.0001H12.7999C13.7999 24.0001 14.5999 24.8001 14.5999 25.8001V56.5001ZM57.7999 34.6001L55.7999 46.3001C54.7999 52.2001 49.6999 56.5001 43.6999 56.5001H22.3999C19.4999 56.5001 17.0999 54.1001 17.0999 51.2001V31.2001C17.0999 28.3001 19.4999 25.9001 22.3999 25.9001H25.6999C28.7999 25.9001 31.7999 24.5001 33.6999 22.0001C35.4999 19.7001 36.1999 16.7001 35.5999 13.8001L34.3999 7.6001C39.4999 8.3001 43.4999 12.8001 43.4999 18.1001V23.9001C43.4999 24.6001 44.0999 25.2001 44.7999 25.2001H49.9999C52.3999 25.2001 54.5999 26.2001 56.0999 28.1001C57.4999 29.8001 58.1999 32.2001 57.7999 34.6001Z" fill="black"/>
</svg>
