<svg width="16" height="14" viewBox="0 0 16 14" fill="none" xmlns="http://www.w3.org/2000/svg">
<path fill-rule="evenodd" clip-rule="evenodd" d="M15 6L3.135 6L6.768 1.64C7.122 1.216 7.064 0.585 6.64 0.232C6.215 -0.122001 5.585 -0.0640012 5.231 0.359999L0.231001 6.36C0.192001 6.407 0.173001 6.462 0.144001 6.514C0.120001 6.556 0.0910006 6.592 0.0730006 6.638C0.0280006 6.753 0.00100103 6.874 0.00100102 6.996C0.00100102 6.997 6.12047e-07 6.999 6.11959e-07 7C6.11872e-07 7.001 0.00100102 7.003 0.00100102 7.004C0.00100101 7.126 0.0280005 7.247 0.0730005 7.362C0.0910005 7.408 0.120001 7.444 0.144001 7.486C0.173001 7.538 0.192001 7.593 0.231001 7.64L5.231 13.64C5.43 13.877 5.714 14 6 14C6.226 14 6.453 13.924 6.64 13.768C7.064 13.415 7.122 12.784 6.768 12.36L3.135 8L15 8C15.552 8 16 7.552 16 7C16 6.448 15.552 6 15 6Z" fill="#C3B6B6"/>
</svg>
