<svg width="68" height="70" viewBox="0 0 68 70" fill="none" xmlns="http://www.w3.org/2000/svg">
<g clip-path="url(#clip0_2040_1898)">
<path d="M54.8801 65.625H50.6953V70H54.8801V65.625Z" fill="#F7FEFF"/>
<path d="M17.217 65.625H13.0322V70H17.217V65.625Z" fill="#F7FEFF"/>
<path d="M59.0652 61.25H54.8804V65.625H59.0652V61.25Z" fill="#F7FEFF"/>
<path d="M54.8801 61.25H50.6953V65.625H54.8801V61.25Z" fill="#231E2B"/>
<path d="M50.6952 61.25H42.3257V65.625H50.6952V61.25Z" fill="#F7FEFF"/>
<path d="M25.5868 61.25H17.2173V65.625H25.5868V61.25Z" fill="#F7FEFF"/>
<path d="M17.217 61.25H13.0322V65.625H17.217V61.25Z" fill="#231E2B"/>
<path d="M13.0324 61.25H8.84766V65.625H13.0324V61.25Z" fill="#F7FEFF"/>
<path d="M63.2497 52.5H59.0649V61.25H63.2497V52.5Z" fill="#F7FEFF"/>
<path d="M54.8801 56.875H50.6953V61.25H54.8801V56.875Z" fill="#E2B436"/>
<path d="M50.6952 56.875H42.3257V61.25H50.6952V56.875Z" fill="#231E2B"/>
<path d="M42.326 56.875H25.5869V61.25H42.326V56.875Z" fill="#F7FEFF"/>
<path d="M25.5868 56.875H17.2173V61.25H25.5868V56.875Z" fill="#231E2B"/>
<path d="M17.217 56.875H13.0322V61.25H17.217V56.875Z" fill="#CF8934"/>
<path d="M13.0324 52.5H8.84766V61.25H13.0324V52.5Z" fill="#231E2B"/>
<path d="M59.0652 52.5H54.8804V61.25H59.0652V52.5Z" fill="#231E2B"/>
<path d="M54.8801 52.5H50.6953V56.875H54.8801V52.5Z" fill="#F5F38E"/>
<path d="M50.6955 52.5H46.5107V56.875H50.6955V52.5Z" fill="#E2B436"/>
<path d="M46.5105 52.5H42.3257V56.875H46.5105V52.5Z" fill="#CF8934"/>
<path d="M42.326 52.5H25.5869V56.875H42.326V52.5Z" fill="#231E2B"/>
<path d="M25.5866 52.5H21.4019V56.875H25.5866V52.5Z" fill="#CF8934"/>
<path d="M21.4021 52.5H17.2173V56.875H21.4021V52.5Z" fill="#E2B436"/>
<path d="M17.217 52.5H13.0322V56.875H17.217V52.5Z" fill="#F5F38E"/>
<path d="M8.84738 52.5H4.6626V61.25H8.84738V52.5Z" fill="#F7FEFF"/>
<path d="M38.1413 48.125H25.5869V52.5H38.1413V48.125Z" fill="#CF8934"/>
<path d="M17.217 35H13.0322V52.5H17.217V35Z" fill="#231E2B"/>
<path d="M13.0324 35H8.84766V52.5H13.0324V35Z" fill="#F7FEFF"/>
<path d="M50.6955 43.75H46.5107V52.5H50.6955V43.75Z" fill="#F5F38E"/>
<path d="M21.4021 43.75H17.2173V52.5H21.4021V43.75Z" fill="#F5F38E"/>
<path d="M25.5868 43.75V39.375H21.4021V35H17.2173V43.75H25.5868Z" fill="#CF8934"/>
<path d="M59.0652 35H54.8804V52.5H59.0652V35Z" fill="#F7FEFF"/>
<path d="M54.8801 35H50.6953V52.5H54.8801V35Z" fill="#231E2B"/>
<path d="M46.5105 39.375H42.3257V43.75H50.6952V35H46.5105V39.375Z" fill="#CF8934"/>
<path d="M63.2497 30.625H59.0649V35H63.2497V30.625Z" fill="#F7FEFF"/>
<path d="M59.0652 30.625H54.8804V35H59.0652V30.625Z" fill="#231E2B"/>
<path d="M54.8801 30.625H50.6953V35H54.8801V30.625Z" fill="#CF8934"/>
<path d="M17.2173 30.625V35H21.4021V39.375H25.5868V43.75H21.4021V52.5H25.5868V48.125H38.1412V52.5H46.5108V43.75H42.326V39.375H46.5108V35H50.6955V30.625H46.5108V26.25H42.326V21.875H38.1412V17.5H29.7716V21.875H25.5868V26.25H21.4021V30.625H17.2173Z" fill="#E2B436"/>
<path d="M17.217 30.625H13.0322V35H17.217V30.625Z" fill="#CF8934"/>
<path d="M13.0324 30.625H8.84766V35H13.0324V30.625Z" fill="#231E2B"/>
<path d="M8.84738 30.625H4.6626V35H8.84738V30.625Z" fill="#F7FEFF"/>
<path d="M67.4348 26.25H63.25V30.625H67.4348V26.25Z" fill="#F7FEFF"/>
<path d="M63.2497 26.25H59.0649V30.625H63.2497V26.25Z" fill="#231E2B"/>
<path d="M59.0651 26.25H46.5107V30.625H59.0651V26.25Z" fill="#F5F38E"/>
<path d="M21.402 26.25H8.84766V30.625H21.402V26.25Z" fill="#F5F38E"/>
<path d="M8.84738 26.25H4.6626V30.625H8.84738V26.25Z" fill="#231E2B"/>
<path d="M4.66281 26.25H0.478027V30.625H4.66281V26.25Z" fill="#F7FEFF"/>
<path d="M63.2497 21.875H59.0649V26.25H63.2497V21.875Z" fill="#F7FEFF"/>
<path d="M59.0651 21.875H46.5107V26.25H59.0651V21.875Z" fill="#231E2B"/>
<path d="M46.5105 21.875H42.3257V26.25H46.5105V21.875Z" fill="#F5F38E"/>
<path d="M25.5866 21.875H21.4019V26.25H25.5866V21.875Z" fill="#CF8934"/>
<path d="M21.402 21.875H8.84766V26.25H21.402V21.875Z" fill="#231E2B"/>
<path d="M8.84738 21.875H4.6626V26.25H8.84738V21.875Z" fill="#F7FEFF"/>
<path d="M59.0651 17.5H46.5107V21.875H59.0651V17.5Z" fill="#F7FEFF"/>
<path d="M46.5105 17.5H42.3257V21.875H46.5105V17.5Z" fill="#231E2B"/>
<path d="M42.3259 17.5H38.1411V21.875H42.3259V17.5Z" fill="#F5F38E"/>
<path d="M29.7717 17.5H25.5869V21.875H29.7717V17.5Z" fill="#CF8934"/>
<path d="M25.5866 17.5H21.4019V21.875H25.5866V17.5Z" fill="#231E2B"/>
<path d="M21.402 17.5H8.84766V21.875H21.402V17.5Z" fill="#F7FEFF"/>
<path d="M46.5105 8.75H42.3257V17.5H46.5105V8.75Z" fill="#F7FEFF"/>
<path d="M38.141 17.5V8.75H33.9563V13.125H29.7715V17.5H38.141Z" fill="#F5F38E"/>
<path d="M29.7717 13.125H25.5869V17.5H29.7717V13.125Z" fill="#231E2B"/>
<path d="M25.5866 13.125H21.4019V17.5H25.5866V13.125Z" fill="#F7FEFF"/>
<path d="M42.3259 8.75H38.1411V17.5H42.3259V8.75Z" fill="#231E2B"/>
<path d="M33.9563 8.75H29.7715V13.125H33.9563V8.75Z" fill="#231E2B"/>
<path d="M29.7717 8.75H25.5869V13.125H29.7717V8.75Z" fill="#F7FEFF"/>
<path d="M42.3259 4.375H38.1411V8.75H42.3259V4.375Z" fill="#F7FEFF"/>
<path d="M38.1408 4.375H33.9561V8.75H38.1408V4.375Z" fill="#231E2B"/>
<path d="M33.9563 4.375H29.7715V8.75H33.9563V4.375Z" fill="#F7FEFF"/>
<path d="M38.1408 0H33.9561V4.375H38.1408V0Z" fill="#F7FEFF"/>
</g>
<defs>
<clipPath id="clip0_2040_1898">
<rect width="66.9565" height="70" fill="white" transform="translate(0.478027)"/>
</clipPath>
</defs>
</svg>
