<svg width="68" height="81" viewBox="0 0 68 81" fill="none" xmlns="http://www.w3.org/2000/svg">
<g clip-path="url(#clip0_2040_1729)">
<path d="M19.6095 75.9375H5.26172V81H19.6095V75.9375Z" fill="#F7FEFF"/>
<path d="M19.6095 45.5625H14.8269V70.875H10.0443V15.1875H19.6095V10.125H5.26172V75.9375H19.6095V45.5625Z" fill="#231E2B"/>
<path d="M5.26161 10.125H0.479004V75.9375H5.26161V10.125Z" fill="#F7FEFF"/>
<path d="M43.5222 55.6875H33.957V60.75H43.5222V55.6875Z" fill="#F7FEFF"/>
<path d="M48.3051 50.625H43.5225V55.6875H48.3051V50.625Z" fill="#F7FEFF"/>
<path d="M43.5222 50.625H33.957V55.6875H43.5222V50.625Z" fill="#231E2B"/>
<path d="M33.9569 50.625H29.1743V55.6875H33.9569V50.625Z" fill="#F7FEFF"/>
<path d="M14.8266 50.625H10.0439V70.875H14.8266V50.625Z" fill="#E2B436"/>
<path d="M62.653 45.5625H48.3052V50.625H62.653V45.5625Z" fill="#F7FEFF"/>
<path d="M48.3051 45.5625H43.5225V50.625H48.3051V45.5625Z" fill="#231E2B"/>
<path d="M43.5222 45.5625H33.957V50.625H43.5222V45.5625Z" fill="#892727"/>
<path d="M33.9569 45.5625H29.1743V50.625H33.9569V45.5625Z" fill="#231E2B"/>
<path d="M19.6094 45.5625V75.9375H24.392V50.625H29.1746V45.5625H19.6094Z" fill="#F7FEFF"/>
<path d="M14.8266 45.5625H10.0439V50.625H14.8266V45.5625Z" fill="#CF8934"/>
<path d="M48.3051 40.5H43.5225V45.5625H48.3051V40.5Z" fill="#892727"/>
<path d="M33.9569 40.5H29.1743V45.5625H33.9569V40.5Z" fill="#892727"/>
<path d="M29.1746 40.5H19.6094V45.5625H29.1746V40.5Z" fill="#231E2B"/>
<path d="M19.6093 40.5H14.8267V45.5625H19.6093V40.5Z" fill="#892727"/>
<path d="M67.4354 30.375H62.6528V45.5625H67.4354V30.375Z" fill="#F7FEFF"/>
<path d="M48.3049 35.4375V20.25H43.5223V25.3125H33.9571V20.25H29.1745V35.4375H19.6093V20.25H14.8267V40.5H33.9571V45.5625H43.5223V40.5H57.8701V35.4375H48.3049Z" fill="#9A2D2D"/>
<path d="M14.8266 15.1875H10.0439V45.5625H14.8266V15.1875Z" fill="#CF6B55"/>
<path d="M57.8704 40.5H48.3052V45.5625H62.653V30.375H57.8704V40.5Z" fill="#231E2B"/>
<path d="M62.6532 20.25H57.8706V30.375H62.6532V20.25Z" fill="#F7FEFF"/>
<path d="M57.8705 20.25H53.0879V30.375H57.8705V20.25Z" fill="#231E2B"/>
<path d="M43.5222 20.25H33.957V25.3125H43.5222V20.25Z" fill="#B0392E"/>
<path d="M48.3051 20.25V35.4375H57.8703V30.375H53.0877V20.25H57.8703V15.1875H43.5225V20.25H48.3051Z" fill="#B0392E"/>
<path d="M43.5222 15.1875H33.957V20.25H43.5222V15.1875Z" fill="#231E2B"/>
<path d="M14.8267 15.1875V20.25H19.6093V35.4375H29.1745V20.25H33.9571V15.1875H14.8267Z" fill="#B0392E"/>
<path d="M67.4354 5.0625H62.6528V20.25H67.4354V5.0625Z" fill="#F7FEFF"/>
<path d="M57.8704 10.125H48.3052V15.1875H57.8704V10.125Z" fill="#CF6B55"/>
<path d="M48.3051 10.125H43.5225V15.1875H48.3051V10.125Z" fill="#231E2B"/>
<path d="M43.5222 10.125H33.957V15.1875H43.5222V10.125Z" fill="#F7FEFF"/>
<path d="M33.9569 10.125H29.1743V15.1875H33.9569V10.125Z" fill="#231E2B"/>
<path d="M29.1746 10.125H19.6094V15.1875H29.1746V10.125Z" fill="#CF6B55"/>
<path d="M57.8704 10.125V20.25H62.653V5.0625H48.3052V10.125H57.8704Z" fill="#231E2B"/>
<path d="M48.3051 5.0625H43.5225V10.125H48.3051V5.0625Z" fill="#F7FEFF"/>
<path d="M33.9569 5.0625H29.1743V10.125H33.9569V5.0625Z" fill="#F7FEFF"/>
<path d="M29.1746 5.0625H19.6094V10.125H29.1746V5.0625Z" fill="#231E2B"/>
<path d="M19.6095 5.0625H5.26172V10.125H19.6095V5.0625Z" fill="#F7FEFF"/>
<path d="M62.653 0H48.3052V5.0625H62.653V0Z" fill="#F7FEFF"/>
<path d="M29.1746 0H19.6094V5.0625H29.1746V0Z" fill="#F7FEFF"/>
</g>
<defs>
<clipPath id="clip0_2040_1729">
<rect width="66.9565" height="81" fill="white" transform="translate(0.479004)"/>
</clipPath>
</defs>
</svg>
