<svg width="69" height="70" viewBox="0 0 69 70" fill="none" xmlns="http://www.w3.org/2000/svg">
<g clip-path="url(#clip0_2040_1779)">
<path d="M47.6695 65.625H22.1948V70H47.6695V65.625Z" fill="#F7FEFF"/>
<path d="M51.9152 56.875H47.6694V65.625H51.9152V56.875Z" fill="#F7FEFF"/>
<path d="M43.4237 61.25H26.4406V56.875H22.1948V65.625H47.6695V56.875H43.4237V61.25Z" fill="#231E2B"/>
<path d="M43.4235 56.875H39.1777V61.25H43.4235V56.875Z" fill="#F5F38E"/>
<path d="M39.1781 56.875H30.6865V61.25H39.1781V56.875Z" fill="#E2B436"/>
<path d="M30.6862 56.875H26.4404V61.25H30.6862V56.875Z" fill="#F5F38E"/>
<path d="M22.1945 56.875H17.9487V65.625H22.1945V56.875Z" fill="#F7FEFF"/>
<path d="M26.4406 43.75H22.1948V56.875H26.4406V43.75Z" fill="#F7FEFF"/>
<path d="M34.9323 52.5H30.6865V56.875H39.1781V48.125H34.9323V52.5Z" fill="#F5F38E"/>
<path d="M34.9323 48.125H30.6865V52.5H34.9323V48.125Z" fill="#E2B436"/>
<path d="M47.6696 43.75H43.4238V56.875H47.6696V43.75Z" fill="#F7FEFF"/>
<path d="M26.4406 56.875H30.6864V39.375H22.1948V43.75H26.4406V56.875Z" fill="#231E2B"/>
<path d="M56.161 39.375H47.6694V43.75H56.161V39.375Z" fill="#F7FEFF"/>
<path d="M39.1777 39.375V56.875H43.4235V43.75H47.6693V39.375H39.1777Z" fill="#231E2B"/>
<path d="M39.1781 39.375H30.6865V48.125H39.1781V39.375Z" fill="#CF8934"/>
<path d="M22.1947 39.375H13.7031V43.75H22.1947V39.375Z" fill="#F7FEFF"/>
<path d="M60.4069 35H56.1611V39.375H60.4069V35Z" fill="#F7FEFF"/>
<path d="M56.161 35H47.6694V39.375H56.161V35Z" fill="#231E2B"/>
<path d="M47.6696 35H43.4238V39.375H47.6696V35Z" fill="#CF8934"/>
<path d="M39.1776 35V30.625H43.4234V13.125H17.9487V30.625H22.1945V35H26.4403V39.375H43.4234V35H39.1776Z" fill="#E2B436"/>
<path d="M26.4406 35H22.1948V39.375H26.4406V35Z" fill="#CF8934"/>
<path d="M22.1947 35H13.7031V39.375H22.1947V35Z" fill="#231E2B"/>
<path d="M13.7033 35H9.45752V39.375H13.7033V35Z" fill="#F7FEFF"/>
<path d="M64.6525 30.625H60.4067V35H64.6525V30.625Z" fill="#F7FEFF"/>
<path d="M60.4069 30.625H56.1611V35H60.4069V30.625Z" fill="#231E2B"/>
<path d="M56.161 30.625H47.6694V35H56.161V30.625Z" fill="#CF8934"/>
<path d="M47.6696 30.625H43.4238V35H47.6696V30.625Z" fill="#E2B436"/>
<path d="M43.4235 30.625H39.1777V35H43.4235V30.625Z" fill="#F5F38E"/>
<path d="M22.1947 30.625H13.7031V35H22.1947V30.625Z" fill="#CF8934"/>
<path d="M13.7033 30.625H9.45752V35H13.7033V30.625Z" fill="#231E2B"/>
<path d="M9.45721 30.625H5.21143V35H9.45721V30.625Z" fill="#F7FEFF"/>
<path d="M60.4069 26.25H56.1611V30.625H60.4069V26.25Z" fill="#CF8934"/>
<path d="M17.9489 17.5H13.7031V30.625H17.9489V17.5Z" fill="#231E2B"/>
<path d="M13.7033 26.25H9.45752V30.625H13.7033V26.25Z" fill="#CF8934"/>
<path d="M9.45721 13.125H5.21143V30.625H9.45721V13.125Z" fill="#231E2B"/>
<path d="M64.6525 13.125H60.4067V30.625H64.6525V13.125Z" fill="#231E2B"/>
<path d="M56.1608 17.5H51.915V30.625H56.1608V17.5Z" fill="#231E2B"/>
<path d="M13.7033 17.5H9.45752V26.25H13.7033V17.5Z" fill="#E2B436"/>
<path d="M5.2116 13.125H0.96582V30.625H5.2116V13.125Z" fill="#F7FEFF"/>
<path d="M60.4069 17.5H56.1611V26.25H60.4069V17.5Z" fill="#E2B436"/>
<path d="M68.8981 13.125H64.6523V30.625H68.8981V13.125Z" fill="#F7FEFF"/>
<path d="M60.4069 13.125H56.1611V17.5H60.4069V13.125Z" fill="#F5F38E"/>
<path d="M56.1608 13.125H51.915V17.5H56.1608V13.125Z" fill="#CF8934"/>
<path d="M51.9152 13.125H47.6694V30.625H51.9152V13.125Z" fill="#E2B436"/>
<path d="M17.9489 13.125H13.7031V17.5H17.9489V13.125Z" fill="#CF8934"/>
<path d="M13.7033 13.125H9.45752V17.5H13.7033V13.125Z" fill="#F5F38E"/>
<path d="M64.6525 8.75H60.4067V13.125H64.6525V8.75Z" fill="#F7FEFF"/>
<path d="M60.4066 8.75H51.915V13.125H60.4066V8.75Z" fill="#231E2B"/>
<path d="M43.4234 13.125V30.625H47.6692V13.125H51.915V8.75H17.9487V13.125H43.4234Z" fill="#F5F38E"/>
<path d="M17.9491 8.75H9.45752V13.125H17.9491V8.75Z" fill="#231E2B"/>
<path d="M9.45721 8.75H5.21143V13.125H9.45721V8.75Z" fill="#F7FEFF"/>
<path d="M60.4066 4.375H51.915V8.75H60.4066V4.375Z" fill="#F7FEFF"/>
<path d="M51.915 4.375H17.9487V8.75H51.915V4.375Z" fill="#231E2B"/>
<path d="M17.9491 4.375H9.45752V8.75H17.9491V4.375Z" fill="#F7FEFF"/>
<path d="M51.915 0H17.9487V4.375H51.915V0Z" fill="#F7FEFF"/>
</g>
<defs>
<clipPath id="clip0_2040_1779">
<rect width="67.9325" height="70" fill="white" transform="translate(0.96582)"/>
</clipPath>
</defs>
</svg>
