<svg width="68" height="70" viewBox="0 0 68 70" fill="none" xmlns="http://www.w3.org/2000/svg">
<g clip-path="url(#clip0_2040_1845)">
<path d="M63.2495 65.625H4.6626V70H63.2495V65.625Z" fill="#F7FEFF"/>
<path d="M63.2495 52.5H59.0648V61.25H8.84738V52.5H4.6626V65.625H63.2495V52.5Z" fill="#231E2B"/>
<path d="M4.66281 52.5H0.478027V65.625H4.66281V52.5Z" fill="#F7FEFF"/>
<path d="M67.4348 52.5H63.25V65.625H67.4348V52.5Z" fill="#F7FEFF"/>
<path d="M63.2497 48.125H59.0649V52.5H63.2497V48.125Z" fill="#F7FEFF"/>
<path d="M59.0652 48.125H54.8804V52.5H59.0652V48.125Z" fill="#231E2B"/>
<path d="M54.8803 48.125H46.5107V52.5H42.3259V48.125H33.9563V52.5H29.7716V48.125H25.5868V52.5H21.402V48.125H13.0324V52.5H8.84766V61.25H59.065V52.5H54.8803V48.125Z" fill="#B6B7B8"/>
<path d="M46.5105 48.125H42.3257V52.5H46.5105V48.125Z" fill="#998B8C"/>
<path d="M33.9563 48.125H29.7715V52.5H33.9563V48.125Z" fill="#998B8C"/>
<path d="M25.5866 48.125H21.4019V52.5H25.5866V48.125Z" fill="#998B8C"/>
<path d="M13.0324 48.125H8.84766V52.5H13.0324V48.125Z" fill="#231E2B"/>
<path d="M8.84738 48.125H4.6626V52.5H8.84738V48.125Z" fill="#F7FEFF"/>
<path d="M59.0652 43.75H54.8804V48.125H59.0652V43.75Z" fill="#F7FEFF"/>
<path d="M54.8801 43.75H50.6953V48.125H54.8801V43.75Z" fill="#231E2B"/>
<path d="M50.6955 43.75H46.5107V48.125H50.6955V43.75Z" fill="#998B8C"/>
<path d="M42.3256 43.75H33.9561V48.125H42.3256V43.75Z" fill="#998B8C"/>
<path d="M29.7717 43.75H25.5869V48.125H29.7717V43.75Z" fill="#998B8C"/>
<path d="M25.5866 48.125V43.75H29.7714V48.125H33.9562V43.75H42.3258V48.125H46.5105V39.375H42.3258V35H38.141V30.625H29.7714V35H25.5866V39.375H21.4019V48.125H25.5866Z" fill="#F7FEFF"/>
<path d="M21.4021 43.75H17.2173V48.125H21.4021V43.75Z" fill="#998B8C"/>
<path d="M17.217 43.75H13.0322V48.125H17.217V43.75Z" fill="#231E2B"/>
<path d="M13.0324 43.75H8.84766V48.125H13.0324V43.75Z" fill="#F7FEFF"/>
<path d="M54.8801 39.375H50.6953V43.75H54.8801V39.375Z" fill="#F7FEFF"/>
<path d="M50.6955 39.375H46.5107V43.75H50.6955V39.375Z" fill="#231E2B"/>
<path d="M21.4021 39.375H17.2173V43.75H21.4021V39.375Z" fill="#231E2B"/>
<path d="M17.217 39.375H13.0322V43.75H17.217V39.375Z" fill="#F7FEFF"/>
<path d="M50.6955 35H46.5107V39.375H50.6955V35Z" fill="#F7FEFF"/>
<path d="M46.5105 35H42.3257V39.375H46.5105V35Z" fill="#231E2B"/>
<path d="M25.5866 35H21.4019V39.375H25.5866V35Z" fill="#231E2B"/>
<path d="M21.4021 35H17.2173V39.375H21.4021V35Z" fill="#F7FEFF"/>
<path d="M46.5105 30.625H42.3257V35H46.5105V30.625Z" fill="#F7FEFF"/>
<path d="M42.3259 30.625H38.1411V35H42.3259V30.625Z" fill="#231E2B"/>
<path d="M25.5866 4.375H21.4019V35H25.5866V4.375Z" fill="#F7FEFF"/>
<path d="M33.9563 26.25H29.7715V30.625H33.9563V26.25Z" fill="#CF8934"/>
<path d="M38.1411 21.875V30.625H42.3259V26.25H46.5107V21.875H38.1411Z" fill="#F7FEFF"/>
<path d="M33.9563 17.5H29.7715V26.25H33.9563V17.5Z" fill="#E2B436"/>
<path d="M42.3256 8.75H33.9561V17.5H42.3256V8.75Z" fill="#B0392E"/>
<path d="M33.9563 8.75H29.7715V17.5H33.9563V8.75Z" fill="#892727"/>
<path d="M50.6955 4.375H46.5107V21.875H50.6955V4.375Z" fill="#F7FEFF"/>
<path d="M25.5869 35H29.7717V8.75H42.326V17.5H33.9565V30.625H38.1413V21.875H46.5108V4.375H25.5869V35Z" fill="#231E2B"/>
<path d="M46.5108 0H25.5869V4.375H46.5108V0Z" fill="#F7FEFF"/>
</g>
<defs>
<clipPath id="clip0_2040_1845">
<rect width="66.9565" height="70" fill="white" transform="translate(0.478027)"/>
</clipPath>
</defs>
</svg>
